{"title":"Fargo S01E07 HDTV x264 AAC [GWC].mp4","uid":10243652,"size":139055139,"categoryP":"video","categoryS":"tv_shows","magnet":"?xt=urn:btih:be34f4c10d211cf8c1af4501a7dcd5268286b8b0&amp;dn=Fargo+S01E07+HDTV+x264+AAC+%5BGWC%5D.mp4&amp;tr=udp%3A%2F%2Ftracker.openbittorrent.com%3A80&amp;tr=udp%3A%2F%2Fopen.demonii.com%3A1337&amp;tr=udp%3A%2F%2Ftracker.coppersurfer.tk%3A6969&amp;tr=udp%3A%2F%2Fexodus.desync.com%3A6969","seeders":0,"leechers":0,"uploader":"canc232","files":1,"time":1401268469,"description":"Fargo S01E07 HDTV x264 AAC [GWC].mp4\n\n\nSTORYLINE :\nA drifter named Lorne Malvo arrives in small-town Minnesota and influences the population with his malice and violence, including put-upon insurance salesman Lester Nygaard.\n\n\nSCREENS : &lt;a href=&quot;\nhttp://i.imgur.com/qqTyI4C.jpg&quot; rel=&quot;nofollow&quot; target=&quot;_NEW&quot;&gt;\nhttp://i.imgur.com/qqTyI4C.jpg&lt;/a&gt; &lt;a href=&quot;\nhttp://i.imgur.com/XvubUhh.jpg&quot; rel=&quot;nofollow&quot; target=&quot;_NEW&quot;&gt;\nhttp://i.imgur.com/XvubUhh.jpg&lt;/a&gt; &lt;a href=&quot;\nhttp://i.imgur.com/UQ6ndaJ.jpg&quot; rel=&quot;nofollow&quot; target=&quot;_NEW&quot;&gt;\nhttp://i.imgur.com/UQ6ndaJ.jpg&lt;/a&gt;\n\n\nMEDIA INFO :\nGeneral \nFormat : MPEG-4 \nFormat profile : Base Media \nFile size : 133 MiB \nDuration : 47mn 51s \nOverall bit rate mode : Variable  \n\nVideo \nFormat : AVC \nFormat profile : &lt;a class=&quot;__cf_email__&quot; href=&quot;/cdn-cgi/l/email-protection&quot; data-cfemail=&quot;145c7d737c5458273a24&quot;&gt;[email&amp;#160;protected]&lt;/a&gt;&lt;script data-cfhash='f9e31' type=&quot;text/javascript&quot;&gt;\n/* &lt;![CDATA[ */!function(){try{var t=&quot;currentScript&quot;in document?document.currentScript:function(){for(var t=document.getElementsByTagName(&quot;script&quot;),e=t.length;e--;)if(t[e].getAttribute(&quot;data-cfhash&quot;))return t[e]}();if(t&amp;&amp;t.previousSibling){var e,r,n,i,c=t.previousSibling,a=c.getAttribute(&quot;data-cfemail&quot;);if(a){for(e=&quot;&quot;,r=parseInt(a.substr(0,2),16),n=2;a.length-n;n+=2)i=parseInt(a.substr(n,2),16)^r,e+=String.fromCharCode(i);e=document.createTextNode(e),c.parentNode.replaceChild(e,c)}t.parentNode.removeChild(t);}}catch(u){}}()/* ]]&gt; */&lt;/script&gt; \nFormat settings, CABAC : Yes \nFormat settings, ReFrames : 4 frames \nDuration : 47mn 50s \nBit rate : 324 Kbps \nMaximum bit rate : 2 677 Kbps \nWidth : 720 pixels \nHeight : 404 pixels \nDisplay aspect ratio : 16:9 \nFrame rate : 23.976 fps \nStream size : 111 MiB (84%) \nTitle : Fargo S01E07 HDTV x264 AAC [GWC] \nWriting library : x264 core \n\nAudio \nFormat : AAC \nFormat profile : HE-AAC / LC \nDuration : 47mn 51s \nBit rate mode : Variable \nChannel(s) : 2 channels \nSampling rate : 48.0 KHz / 24.0 KHz \nStream size : 20.5 MiB (15%) \nLanguage : English ","torrent":{"xt":"urn:btih:be34f4c10d211cf8c1af4501a7dcd5268286b8b0","amp;dn":"Fargo+S01E07+HDTV+x264+AAC+%5BGWC%5D.mp4","amp;tr":["udp%3A%2F%2Ftracker.openbittorrent.com%3A80","udp%3A%2F%2Fopen.demonii.com%3A1337","udp%3A%2F%2Ftracker.coppersurfer.tk%3A6969","udp%3A%2F%2Fexodus.desync.com%3A6969"],"infoHash":"be34f4c10d211cf8c1af4501a7dcd5268286b8b0","infoHashBuffer":{"type":"Buffer","data":[190,52,244,193,13,33,28,248,193,175,69,1,167,220,213,38,130,134,184,176]},"announce":[],"urlList":[]}}